<?xml version="1.0" standalone="no"?><svg xmlns="http://www.w3.org/2000/svg" viewBox="0 0 1440 320"><path fill="#ff5500" fill-opacity="1" d="M0,32L20,53.3C40,75,80,117,120,117.3C160,117,200,75,240,90.7C280,107,320,181,360,181.3C400,181,440,107,480,74.7C520,43,560,53,600,101.3C640,149,680,235,720,250.7C760,267,800,213,840,202.7C880,192,920,224,960,213.3C1000,203,1040,149,1080,117.3C1120,85,1160,75,1200,90.7C1240,107,1280,149,1320,176C1360,203,1400,213,1420,218.7L1440,224L1440,320L1420,320C1400,320,1360,320,1320,320C1280,320,1240,320,1200,320C1160,320,1120,320,1080,320C1040,320,1000,320,960,320C920,320,880,320,840,320C800,320,760,320,720,320C680,320,640,320,600,320C560,320,520,320,480,320C440,320,400,320,360,320C320,320,280,320,240,320C200,320,160,320,120,320C80,320,40,320,20,320L0,320Z"></path></svg>